<svg width="65" height="26" viewBox="0 0 65 26" fill="none" xmlns="http://www.w3.org/2000/svg">
<path d="M32.6151 0.0250458C43.0047 0.0250458 53.3943 0.0375532 63.7836 3.09411e-05C64.7279 -0.00322099 65.0061 0.248678 64.9999 1.31631C64.9564 8.86513 64.9564 16.4142 64.9999 23.9635C65.0061 25.0537 64.7577 25.3676 63.7376 25.3658C42.9587 25.331 22.1797 25.3213 1.40052 25.3368C0.0284322 25.3368 0.0229569 25.3346 0.0224592 23.8482C0.0199703 16.2992 0.0373915 8.74973 5.91536e-05 1.20074C-0.00491849 0.209906 0.303696 0.0057843 1.13471 0.00778549C11.6279 0.034468 22.1214 0.0402215 32.6151 0.0250458ZM0.78827 12.7358C0.78827 16.2827 0.810171 19.8298 0.772092 23.3759C0.763381 24.2014 0.931128 24.4936 1.74149 24.4873C6.98942 24.447 12.2376 24.4457 17.486 24.4836C18.318 24.4888 18.6281 24.2697 18.6227 23.2806C18.5848 16.2638 18.5843 9.24669 18.6212 2.22936C18.6262 1.23151 18.3474 0.893562 17.4425 0.898815C12.2291 0.929333 7.01563 0.927332 1.80222 0.892811C0.934363 0.885807 0.766119 1.24452 0.774332 2.09603C0.80818 5.64213 0.788518 9.18924 0.78827 12.7358ZM24.0695 12.2998C24.0695 13.7457 24.0622 15.1916 24.0747 16.6372C24.0777 16.9976 23.9836 17.4421 24.4259 17.6052C24.7932 17.7406 25.1073 17.5607 25.3689 17.2921C25.8203 16.828 26.2897 16.3778 26.6912 15.8647C27.1494 15.2789 27.5292 15.3594 27.9704 15.8647C28.447 16.4108 28.9461 16.9343 29.4495 17.4509C29.7079 17.7161 29.9224 18.1406 30.3906 17.7353C30.8771 17.3143 30.5523 16.9078 30.3853 16.5596C30.0573 15.8765 29.4583 15.439 28.955 14.9224C28.4573 14.4101 28.3375 13.9763 28.911 13.4215C29.4202 12.929 29.9065 12.3959 30.3313 11.8158C30.571 11.4891 30.8119 11.0066 30.3861 10.6268C29.9924 10.2766 29.7216 10.6168 29.4428 10.9253C28.3537 12.1297 27.2571 13.3267 26.1409 14.5001C25.9682 14.682 25.8544 15.1255 25.5028 14.9269C25.2091 14.7636 25.3109 14.3883 25.3086 14.0992C25.2984 12.3108 25.3086 10.522 25.2972 8.73447C25.295 8.36225 25.4037 7.95351 25.1693 7.62806C24.9796 7.36491 25.0199 6.81483 24.4946 6.93615C24.0045 7.04947 24.0836 7.49899 24.0789 7.84844C24.06 9.33207 24.0715 10.816 24.0695 12.2998ZM60.3587 15.3289H60.3513C60.3513 14.8353 60.3762 14.3398 60.3465 13.8485C60.24 12.1475 58.6925 10.5215 57.1511 10.47C54.902 10.395 53.4776 11.9929 53.5423 14.5172C53.6058 16.9436 56.1058 18.6719 58.1238 17.6738C58.4122 17.5309 58.6653 17.3986 59.0026 17.5209C60.1748 17.9497 60.3396 17.8134 60.3582 16.4678C60.3632 16.0893 60.3587 15.7086 60.3587 15.3289ZM35.4954 10.47C33.1686 10.2334 31.3308 13.4005 32.5058 15.8877C33.5715 18.1476 35.3635 18.2756 36.6724 17.7403C37.5385 17.3864 38.3633 16.7445 38.5459 15.6408C38.7032 14.6903 38.6754 13.7029 38.7221 12.7313C38.7251 12.6663 38.6739 12.5915 38.6345 12.5312C37.8468 11.3383 36.9628 10.3202 35.4946 10.47H35.4954ZM49.2295 14.6725C49.7845 14.6725 50.34 14.6913 50.8942 14.6685C51.895 14.6272 52.1822 14.1257 51.8046 13.1073C51.7143 12.8637 51.5961 12.632 51.506 12.3886C51.0256 11.0939 50.1307 10.5228 48.8783 10.457C47.3041 10.3744 46.2008 11.1824 45.6363 12.6891C45.1996 13.854 45.1737 15.1103 45.944 16.2467C47.1072 17.9627 48.9338 17.7591 50.4487 17.2956C50.8786 17.1642 51.23 16.8273 51.0212 16.2905C50.7812 15.6706 50.3706 15.9763 49.9813 16.1691C48.8726 16.7195 47.5015 16.5504 46.8788 15.8012C46.7225 15.6133 46.5054 15.3977 46.5928 15.119C46.6894 14.8103 46.9395 14.6687 47.2511 14.673C47.9104 14.681 48.5697 14.6762 49.2287 14.6735L49.2295 14.6725ZM41.3668 12.2335C41.3668 10.8252 41.3732 9.41713 41.363 8.00879C41.3596 7.52725 41.4377 6.87236 40.812 6.86461C40.2082 6.85735 40.1102 7.46497 40.1094 8.01954C40.1061 10.8742 40.1061 13.7288 40.1094 16.5831C40.1094 17.0957 40.2127 17.701 40.7339 17.681C41.1838 17.6635 41.3979 17.165 41.381 16.5719C41.3367 15.128 41.3645 13.6809 41.366 12.2345L41.3668 12.2335ZM43.9922 12.2978C43.9922 10.887 43.986 9.47591 43.9955 8.06532C43.9992 7.49398 43.8994 6.85685 43.3302 6.86461C42.8504 6.87161 42.7354 7.47872 42.7379 8.0193C42.7505 10.9172 42.7516 13.8152 42.7411 16.7132C42.7399 17.2458 42.8324 17.8569 43.3384 17.8576C43.9305 17.8576 43.9937 17.2073 43.9917 16.6442C43.987 15.1968 43.9902 13.7477 43.9915 12.2988L43.9922 12.2978Z" fill="#0E5BAD"/>
<path d="M14.1696 5.80803C14.1561 6.14652 14.0761 6.43707 13.926 6.74483C13.0857 8.46184 12.2919 10.2123 11.4563 11.9315C11.1704 12.5215 11.1394 12.9733 11.5757 13.4983C12.4875 14.5954 13.1178 15.9626 13.8766 17.2072C14.2768 17.8637 14.6296 18.5321 15.366 18.7332C15.7204 18.8315 15.8996 19.2187 15.8435 19.6983C15.7844 20.2032 15.5397 20.5094 15.1335 20.5876C14.5308 20.7054 14.0877 20.3371 13.6562 19.8748C12.4963 18.6312 11.6902 17.0587 10.8297 15.5324C10.3881 14.749 9.88757 14.0981 8.96932 14.3142C8.52637 14.4187 8.02118 14.2938 7.93768 13.6738C7.85153 13.0347 8.29204 12.8673 8.7587 12.7279C9.5002 12.5067 9.7312 11.5972 10.0138 10.9163C10.7956 9.0368 11.8344 7.3424 12.6188 5.4666C12.7847 5.0701 13.0817 4.61534 13.5712 4.79749C13.9603 4.94252 14.1825 5.28592 14.1696 5.80803Z" fill="#0E5BAD"/>
<path d="M4.76481 12.2445C4.76481 10.1713 4.78125 8.09765 4.75639 6.02491C4.74756 5.28999 4.93836 4.73342 5.57176 4.75681C6.15361 4.77817 6.33825 5.38177 6.33887 6.02127C6.34297 10.2022 6.34222 14.3834 6.33661 18.5647C6.33496 19.2201 6.20865 19.8431 5.49454 19.8162C4.81431 19.791 4.76769 19.1802 4.76625 18.5681C4.76132 16.4602 4.76461 14.3525 4.76481 12.2445Z" fill="#0E5BAD"/>
<path d="M56.2707 16.6338C54.5654 16.802 54.0084 15.2286 53.9084 13.8241C53.8064 12.3941 55.0357 11.1048 56.3007 11.0974C57.5733 11.0901 58.7329 12.3388 58.6548 13.9541C58.5529 16.0234 58.0636 16.6515 56.2707 16.6338Z" fill="#0E5BAD"/>
<path d="M35.2895 16.6899C34.2867 16.943 33.4406 15.1732 33.4287 13.7941C33.416 12.3052 34.2595 11.1454 35.3467 11.1428C36.3579 11.1405 37.1453 12.3183 37.1428 13.8285C37.14 15.4579 36.3345 16.7022 35.2895 16.6899Z" fill="#0E5BAD"/>
<path d="M48.6777 13.8917C48.4001 13.8917 48.1131 13.9508 47.8466 13.879C47.344 13.7441 46.4046 14.2725 46.429 13.4815C46.454 12.6679 46.893 11.5779 47.8079 11.277C48.4546 11.0642 49.0624 11.1062 49.6548 11.3908C50.3907 11.7422 51.1636 12.4475 51.0624 13.4248C50.9772 14.2445 50.058 13.7854 49.5091 13.8831C49.2377 13.9327 48.9556 13.8917 48.6777 13.8917Z" fill="#0E5BAD"/>
</svg>
