<svg width="69" height="69" viewBox="0 0 69 69" fill="none" xmlns="http://www.w3.org/2000/svg">
<g filter="url(#filter0_d_745_3153)">
<rect x="9" y="9" width="45" height="45" rx="5" fill="#E71837"/>
</g>
<path d="M43.8426 28.6354H31.8581V33.657H38.7549C38.113 36.8481 35.426 38.6815 31.8581 38.6815C30.8598 38.6832 29.8709 38.4857 28.9483 38.1002C28.0256 37.7147 27.1873 37.1488 26.4814 36.435C25.7756 35.7212 25.216 34.8735 24.8349 33.9406C24.4538 33.0077 24.2585 32.0079 24.2604 30.9985C24.2587 29.9893 24.4541 28.9897 24.8353 28.0569C25.2165 27.1242 25.7761 26.2767 26.482 25.563C27.1878 24.8494 28.026 24.2837 28.9486 23.8982C29.8712 23.5128 30.8599 23.3153 31.8581 23.317C33.6701 23.317 35.308 23.9675 36.5932 25.0311L40.3352 21.2493C38.0555 19.2398 35.1324 18.0001 31.8581 18.0001C30.1682 17.9951 28.494 18.3279 26.9317 18.9794C25.3695 19.631 23.9501 20.5884 22.7551 21.7965C21.5601 23.0047 20.6132 24.4398 19.9688 26.0192C19.3243 27.5987 18.9951 29.2914 19.0001 31C18.9949 32.7086 19.324 34.4014 19.9684 35.981C20.6127 37.5606 21.5597 38.9957 22.7547 40.2039C23.9497 41.4121 25.3692 42.3695 26.9315 43.0209C28.4938 43.6724 30.1682 44.0051 31.8581 43.9999C38.2872 43.9999 44.1333 39.2723 44.1333 31C44.1333 30.2317 44.0168 29.4037 43.8426 28.6354Z" fill="white"/>
<defs>
<filter id="filter0_d_745_3153" x="0" y="0" width="69" height="69" filterUnits="userSpaceOnUse" color-interpolation-filters="sRGB">
<feFlood flood-opacity="0" result="BackgroundImageFix"/>
<feColorMatrix in="SourceAlpha" type="matrix" values="0 0 0 0 0 0 0 0 0 0 0 0 0 0 0 0 0 0 127 0" result="hardAlpha"/>
<feOffset dx="3" dy="3"/>
<feGaussianBlur stdDeviation="6"/>
<feColorMatrix type="matrix" values="0 0 0 0 0 0 0 0 0 0 0 0 0 0 0 0 0 0 0.15 0"/>
<feBlend mode="normal" in2="BackgroundImageFix" result="effect1_dropShadow_745_3153"/>
<feBlend mode="normal" in="SourceGraphic" in2="effect1_dropShadow_745_3153" result="shape"/>
</filter>
</defs>
</svg>
