<svg width="2612" height="1015" viewBox="0 0 2612 1015" fill="none" xmlns="http://www.w3.org/2000/svg">
<path d="M1310.46 1.00124C1727.91 1.00124 2145.36 1.50124 2562.8 0.00123691C2600.74 -0.128763 2611.92 9.94123 2611.67 52.6212C2609.93 354.395 2609.93 656.178 2611.67 957.971C2611.92 1001.55 2601.94 1014.1 2560.95 1014.03C1726.07 1012.64 891.172 1012.25 56.2724 1012.87C1.1424 1012.87 0.922401 1012.78 0.902401 953.361C0.802401 651.581 1.50238 349.781 0.00237677 48.0012C-0.197623 8.39124 12.2024 0.231234 45.5924 0.311234C467.206 1.3779 888.829 1.6079 1310.46 1.00124ZM31.6724 509.131C31.6724 650.921 32.5524 792.721 31.0224 934.481C30.6724 967.481 37.4124 979.161 69.9724 978.911C280.832 977.298 491.702 977.248 702.582 978.761C736.012 978.971 748.472 970.211 748.252 930.671C746.732 650.165 746.712 369.648 748.192 89.1212C748.392 49.2312 737.192 35.7212 700.832 35.9312C491.359 37.1512 281.886 37.0712 72.4124 35.6912C37.5424 35.4112 30.7824 49.7512 31.1124 83.7912C32.4724 225.551 31.6824 367.351 31.6724 509.131ZM967.102 491.701C967.102 549.501 966.812 607.301 967.312 665.091C967.432 679.501 963.652 697.271 981.422 703.791C996.182 709.201 1008.8 702.011 1019.31 691.271C1037.45 672.721 1056.31 654.721 1072.44 634.211C1090.85 610.791 1106.11 614.011 1123.84 634.211C1142.99 656.041 1163.04 676.971 1183.27 697.621C1193.65 708.221 1202.27 725.191 1221.08 708.991C1240.63 692.161 1227.58 675.911 1220.87 661.991C1207.69 634.681 1183.62 617.191 1163.4 596.541C1143.4 576.061 1138.59 558.721 1161.63 536.541C1182.09 516.851 1201.63 495.541 1218.7 472.351C1228.33 459.291 1238.01 440.001 1220.9 424.821C1205.08 410.821 1194.2 424.421 1183 436.751C1139.24 484.901 1095.18 532.751 1050.33 579.661C1043.39 586.931 1038.82 604.661 1024.69 596.721C1012.89 590.191 1016.98 575.191 1016.89 563.631C1016.48 492.141 1016.89 420.631 1016.43 349.171C1016.34 334.291 1020.71 317.951 1011.29 304.941C1003.67 294.421 1005.29 272.431 984.182 277.281C964.492 281.811 967.672 299.781 967.482 313.751C966.722 373.061 967.182 432.381 967.102 491.701ZM2425.19 612.791H2424.89C2424.89 593.061 2425.89 573.251 2424.7 553.611C2420.42 485.611 2358.24 420.611 2296.31 418.551C2205.94 415.551 2148.71 479.431 2151.31 580.341C2153.86 677.341 2254.31 746.431 2335.39 706.531C2346.98 700.821 2357.15 695.531 2370.7 700.421C2417.8 717.561 2424.42 712.111 2425.17 658.321C2425.37 643.191 2425.19 627.971 2425.19 612.791ZM1426.19 418.551C1332.7 409.091 1258.86 535.701 1306.07 635.131C1348.89 725.471 1420.89 730.591 1473.48 709.191C1508.28 695.041 1541.42 669.381 1548.76 625.261C1555.08 587.261 1553.96 547.791 1555.84 508.951C1555.96 506.351 1553.9 503.361 1552.32 500.951C1520.67 453.261 1485.15 412.561 1426.16 418.551H1426.19ZM1978.02 586.551C2000.32 586.551 2022.64 587.301 2044.91 586.391C2085.12 584.741 2096.66 564.691 2081.49 523.981C2077.86 514.241 2073.11 504.981 2069.49 495.251C2050.19 443.491 2014.23 420.661 1963.91 418.031C1900.66 414.731 1856.33 447.031 1833.65 507.261C1816.1 553.831 1815.06 604.051 1846.01 649.481C1892.75 718.081 1966.14 709.941 2027.01 691.411C2044.28 686.161 2058.4 672.691 2050.01 651.231C2040.37 626.451 2023.87 638.671 2008.23 646.381C1963.68 668.381 1908.59 661.621 1883.57 631.671C1877.29 624.161 1868.57 615.541 1872.08 604.401C1875.96 592.061 1886.01 586.401 1898.53 586.571C1925.02 586.891 1951.51 586.701 1977.99 586.591L1978.02 586.551ZM1662.1 489.051C1662.1 432.751 1662.36 376.461 1661.95 320.161C1661.81 300.911 1664.95 274.731 1639.81 274.421C1615.55 274.131 1611.61 298.421 1611.58 320.591C1611.45 434.711 1611.45 548.825 1611.58 662.931C1611.58 683.421 1615.73 707.621 1636.67 706.821C1654.75 706.121 1663.35 686.191 1662.67 662.481C1660.89 604.761 1662.01 546.911 1662.07 489.091L1662.1 489.051ZM1767.59 491.621C1767.59 435.221 1767.34 378.811 1767.72 322.421C1767.87 299.581 1763.86 274.111 1740.99 274.421C1721.71 274.701 1717.09 298.971 1717.19 320.581C1717.7 436.428 1717.74 552.278 1717.32 668.131C1717.27 689.421 1720.99 713.851 1741.32 713.881C1765.11 713.881 1767.65 687.881 1767.57 665.371C1767.38 607.511 1767.51 549.581 1767.56 491.661L1767.59 491.621Z" fill="#0E5BAD"/>
<path d="M967.142 491.701C967.142 432.381 966.722 373.061 967.512 313.751C967.702 299.751 964.512 281.811 984.212 277.281C1005.3 272.431 1003.7 294.421 1011.32 304.941C1020.74 317.941 1016.32 334.291 1016.46 349.171C1016.89 420.651 1016.46 492.171 1016.92 563.631C1016.98 575.161 1012.86 590.151 1024.69 596.771C1038.82 604.681 1043.39 586.981 1050.33 579.711C1095.18 532.781 1139.24 484.951 1183 436.801C1194.2 424.471 1205.08 410.801 1220.9 424.871C1238.01 440.051 1228.33 459.342 1218.7 472.402C1201.63 495.552 1182.09 516.901 1161.63 536.591C1138.63 558.751 1143.35 576.091 1163.4 596.591C1183.62 617.241 1207.69 634.731 1220.87 662.041C1227.58 675.951 1240.63 692.201 1221.08 709.041C1202.25 725.241 1193.65 708.271 1183.27 697.671C1163.04 676.991 1142.99 656.061 1123.89 634.191C1106.16 613.971 1090.89 610.751 1072.49 634.191C1056.37 654.701 1037.49 672.701 1019.36 691.251C1008.85 701.991 996.232 709.181 981.472 703.771C963.702 697.251 967.472 679.481 967.362 665.071C966.812 607.301 967.102 549.501 967.142 491.701Z" fill="#F5F5F5"/>
<path d="M2425.19 612.791C2425.19 627.971 2425.37 643.151 2425.19 658.321C2424.44 712.111 2417.82 717.561 2370.72 700.421C2357.17 695.491 2347 700.821 2335.41 706.531C2254.29 746.431 2153.88 677.382 2151.33 580.342C2148.69 479.432 2205.92 415.551 2296.33 418.551C2358.26 420.551 2420.44 485.551 2424.72 553.611C2425.95 573.251 2424.91 593.061 2424.91 612.791H2425.19ZM2282.78 658.911C2349.78 659.511 2368.09 638.261 2371.87 568.251C2374.82 513.561 2331.47 471.351 2283.87 471.601C2236.58 471.851 2190.63 515.471 2194.44 563.851C2198.21 611.371 2219.03 664.601 2282.78 658.911V658.911Z" fill="#F5F5F5"/>
<path d="M1426.16 418.551C1485.16 412.551 1520.67 453.261 1552.32 501.011C1553.9 503.391 1555.96 506.381 1555.84 509.011C1553.96 547.851 1555.08 587.331 1548.76 625.321C1541.42 669.441 1508.28 695.101 1473.48 709.251C1420.89 730.591 1348.89 725.471 1306.04 635.131C1258.83 535.701 1332.67 409.091 1426.16 418.551ZM1424.54 665.101C1475.61 665.531 1514.97 622.101 1515.11 565.261C1515.23 512.581 1476.75 471.511 1427.34 471.591C1374.21 471.681 1332.99 512.131 1333.61 564.061C1334.19 612.191 1375.59 673.931 1424.54 665.101V665.101Z" fill="#F5F5F5"/>
<path d="M1977.99 586.642C1951.51 586.702 1924.99 586.892 1898.55 586.642C1886.03 586.512 1875.98 592.132 1872.1 604.472C1868.6 615.612 1877.31 624.232 1883.59 631.742C1908.59 661.742 1963.7 668.412 2008.25 646.452C2023.89 638.742 2040.39 626.522 2050.03 651.302C2058.38 672.762 2044.26 686.232 2027.03 691.482C1966.14 710.012 1892.75 718.152 1846.03 649.552C1815.08 604.122 1816.12 553.902 1833.67 507.332C1856.35 447.142 1900.67 414.802 1963.93 418.102C2014.25 420.732 2050.21 443.562 2069.51 495.322C2073.14 505.062 2077.89 514.322 2081.51 524.052C2096.68 564.762 2085.14 584.812 2044.93 586.462C2022.61 587.342 2000.29 586.592 1977.99 586.642ZM1961.18 538.992C1970.96 538.992 1980.88 540.172 1990.48 538.742C2009.8 535.882 2042.17 549.292 2045.15 525.322C2048.71 496.712 2021.51 476.062 1995.61 465.772C1974.72 457.472 1953.33 456.212 1930.61 462.442C1898.41 471.252 1882.96 503.162 1882.08 526.982C1881.22 550.142 1914.28 534.672 1931.97 538.622C1941.31 540.722 1951.41 538.992 1961.18 538.992V538.992Z" fill="#F5F5F5"/>
<path d="M1662.04 489.092C1662.04 546.912 1660.85 604.762 1662.57 662.522C1663.28 686.232 1654.68 706.162 1636.57 706.862C1615.63 707.662 1611.5 683.462 1611.48 662.972C1611.38 548.865 1611.38 434.752 1611.48 320.632C1611.48 298.422 1615.48 274.172 1639.71 274.462C1664.89 274.772 1661.71 300.952 1661.85 320.202C1662.33 376.502 1662.07 432.792 1662.04 489.092Z" fill="#F5F5F5"/>
<path d="M1767.54 491.661C1767.54 549.581 1767.38 607.511 1767.54 665.431C1767.62 687.901 1765.08 713.981 1741.29 713.941C1720.93 713.941 1717.21 689.481 1717.29 668.191C1717.61 552.338 1717.57 436.488 1717.16 320.641C1717.06 299.031 1721.68 274.761 1740.96 274.481C1763.83 274.151 1767.84 299.621 1767.69 322.481C1767.31 378.851 1767.56 435.261 1767.54 491.661Z" fill="#F5F5F5"/>
<path d="M578.366 240.593C577.756 254.363 574.146 266.183 567.366 278.703C529.426 348.553 493.586 419.763 455.856 489.703C442.946 513.703 441.546 532.083 461.246 553.443C502.416 598.073 530.876 653.693 565.136 704.323C583.206 731.033 599.136 758.223 632.386 766.403C648.386 770.403 656.476 786.153 653.946 805.663C651.276 826.203 640.226 838.663 621.886 841.843C594.676 846.633 574.666 831.653 555.186 812.843C502.816 762.253 466.416 698.283 427.566 636.193C407.626 604.323 385.026 577.843 343.566 586.633C323.566 590.883 300.756 585.803 296.986 560.583C293.096 534.583 312.986 527.773 334.056 522.103C367.536 513.103 377.966 476.103 390.726 448.403C426.026 371.943 472.926 303.013 508.346 226.703C515.836 210.573 529.246 192.073 551.346 199.483C568.916 205.383 578.946 219.353 578.366 240.593Z" fill="#0E5BAD"/>
<path d="M162.316 500.823C162.316 409.563 163.116 318.283 161.906 227.043C161.476 194.693 170.766 170.193 201.606 171.223C229.936 172.163 238.926 198.733 238.956 226.883C239.156 410.923 239.119 594.973 238.846 779.033C238.766 807.883 232.616 835.303 197.846 834.123C164.726 833.013 162.456 806.123 162.386 779.183C162.146 686.393 162.306 593.613 162.316 500.823Z" fill="#0E5BAD"/>
<path d="M2282.78 658.911C2219.03 664.601 2198.21 611.371 2194.47 563.851C2190.66 515.471 2236.61 471.851 2283.9 471.601C2331.47 471.351 2374.82 513.601 2371.9 568.251C2368.09 638.261 2349.8 659.511 2282.78 658.911Z" fill="#0E5BAD"/>
<path d="M1424.54 665.101C1375.54 673.931 1334.19 612.201 1333.61 564.101C1332.99 512.171 1374.21 471.721 1427.34 471.631C1476.75 471.551 1515.23 512.631 1515.11 565.301C1514.97 622.131 1475.61 665.531 1424.54 665.101Z" fill="#0E5BAD"/>
<path d="M1956.16 547.479C1946.39 547.479 1936.29 549.209 1926.91 547.109C1909.22 543.159 1876.16 558.629 1877.02 535.469C1877.9 511.649 1893.35 479.739 1925.55 470.929C1948.31 464.699 1969.7 465.929 1990.55 474.259C2016.45 484.549 2043.65 505.199 2040.09 533.809C2037.09 557.809 2004.74 544.369 1985.42 547.229C1975.87 548.679 1965.94 547.479 1956.16 547.479Z" fill="#0E5BAD"/>
</svg>
