<svg width="812" height="812" viewBox="0 0 812 812" fill="none" xmlns="http://www.w3.org/2000/svg">
<rect width="812" height="812" fill="white"/>
<path d="M576.474 139.402C575.864 153.172 572.254 164.992 565.474 177.512C527.534 247.362 491.694 318.572 453.964 388.512C441.054 412.512 439.654 430.892 459.354 452.252C500.524 496.882 528.984 552.502 563.244 603.132C581.314 629.842 597.244 657.032 630.494 665.212C646.494 669.212 654.584 684.961 652.054 704.471C649.384 725.011 638.334 737.472 619.994 740.652C592.784 745.442 572.774 730.462 553.294 711.652C500.924 661.062 464.524 597.092 425.674 535.002C405.734 503.132 383.134 476.652 341.674 485.442C321.674 489.692 298.864 484.612 295.094 459.392C291.204 433.392 311.094 426.582 332.164 420.911C365.644 411.911 376.074 374.912 388.834 347.212C424.134 270.752 471.034 201.822 506.454 125.512C513.944 109.382 527.354 90.8815 549.454 98.2915C567.024 104.192 577.054 118.162 576.474 139.402Z" fill="#0E5BAD"/>
<path d="M160.424 399.631C160.424 308.371 161.224 217.091 160.014 125.851C159.584 93.5013 168.874 69.0013 199.714 70.0313C228.044 70.9713 237.034 97.5413 237.064 125.691C237.264 309.731 237.228 493.781 236.954 677.841C236.874 706.691 230.724 734.111 195.954 732.931C162.834 731.821 160.564 704.931 160.494 677.991C160.254 585.201 160.414 492.421 160.424 399.631Z" fill="#0E5BAD"/>
</svg>
